<?xml version="1.0" encoding="UTF-8" standalone="no"?>
<!-- Created with Inkscape (http://www.inkscape.org/) -->

<svg
   width="1023.4326mm"
   height="50mm"
   viewBox="0 0 1023.4326 50"
   version="1.1"
   id="svg15859"
   inkscape:version="1.1 (c68e22c387, 2021-05-23)"
   sodipodi:docname="sw1.svg"
   xmlns:inkscape="http://www.inkscape.org/namespaces/inkscape"
   xmlns:sodipodi="http://sodipodi.sourceforge.net/DTD/sodipodi-0.dtd"
   xmlns="http://www.w3.org/2000/svg"
   xmlns:svg="http://www.w3.org/2000/svg">
  <sodipodi:namedview
     id="namedview15861"
     pagecolor="#ffffff"
     bordercolor="#666666"
     borderopacity="1.0"
     inkscape:pageshadow="2"
     inkscape:pageopacity="0.0"
     inkscape:pagecheckerboard="0"
     inkscape:document-units="mm"
     showgrid="false"
     fit-margin-top="0"
     fit-margin-left="0"
     fit-margin-right="0"
     fit-margin-bottom="0"
     inkscape:zoom="0.077058782"
     inkscape:cx="2485.1158"
     inkscape:cy="259.54212"
     inkscape:window-width="1284"
     inkscape:window-height="900"
     inkscape:window-x="2559"
     inkscape:window-y="-51"
     inkscape:window-maximized="0"
     inkscape:current-layer="layer1" />
  <defs
     id="defs15856" />
  <g
     inkscape:label="Layer 1"
     inkscape:groupmode="layer"
     id="layer1"
     transform="translate(601.84637,-97.31936)">
    <g
       id="g15832"
       transform="matrix(1,0,0,0.62415903,201.13872,-131.09728)"
       style="stroke:none">
      <path
         id="rect5956"
         style="fill:#0000ff;fill-opacity:1;stroke:none;stroke-width:1.68404"
         d="m 833.1875,1417.9961 c -6.4576,-0.5303 -13.14637,-1.1973 -19.48047,-1.6563 -16.31975,-1.1825 -32.2312,-2.1308 -47.74023,-2.8632 -15.50904,-0.7325 -30.61665,-1.2486 -45.32813,-1.5645 -14.71147,-0.3158 -29.02605,-0.4324 -42.95312,-0.3652 -13.92708,0.067 -27.46526,0.3178 -40.6211,0.7343 -13.15584,0.4166 -25.93036,1.0001 -38.32812,1.7325 -12.39777,0.7324 -24.41942,1.6142 -36.07227,2.6289 -11.65285,1.0147 -22.93632,2.1623 -33.85742,3.4258 -10.9211,1.2634 -21.47914,2.6425 -31.68164,4.1211 -10.2025,1.4785 -20.0498,3.0566 -29.54688,4.7167 -9.49707,1.6602 -18.64442,3.4028 -27.44921,5.211 -8.8048,1.8082 -17.2669,3.6809 -25.39258,5.6035 -8.12569,1.9226 -15.91527,3.895 -23.375,5.8984 -7.45974,2.0035 -14.58954,4.0391 -21.39649,6.0899 -6.80694,2.0508 -13.29166,4.1171 -19.45898,6.1816 -6.16732,2.0645 -12.01775,4.1272 -17.55859,6.1719 -11.0817,4.0894 -20.92334,8.1055 -29.57813,11.9141 -8.65478,3.8086 -16.12192,7.4087 -22.45508,10.6679 -6.33316,3.2593 -11.53161,6.1778 -15.64844,8.6192 -8.23364,4.8828 -12.14062,7.8613 -12.14062,7.8613 0,0 -1.43954,1.1103 -4.32422,3.1328 -2.88467,2.0226 -7.21521,4.9567 -12.99219,8.6035 -5.77697,3.6469 -13.00082,8.006 -21.67773,12.8789 -8.67691,4.8729 -18.80615,10.2603 -30.39063,15.961 -5.79223,2.8503 -11.94819,5.7791 -18.46875,8.7617 -6.52055,2.9826 -13.40641,6.0189 -20.65625,9.084 -7.24983,3.0651 -14.86369,6.16 -22.84375,9.2578 -7.98006,3.0978 -16.32586,6.1985 -25.037105,9.2793 -8.711243,3.0807 -17.789043,6.1404 -27.232422,9.1543 -9.443378,3.0139 -19.251266,5.9816 -29.427734,8.8789 -10.176468,2.8973 -20.720349,5.7242 -31.6308596,8.4551 -10.910511,2.7308 -22.1884764,5.3662 -33.8339844,7.8808 -11.645508,2.5147 -23.659557,4.9096 -36.041016,7.1582 -12.381458,2.2487 -25.129684,4.3503 -38.248047,6.2832 -13.118362,1.9329 -26.606672,3.6963 -40.462892,5.2637 -13.85622,1.5674 -28.08075,2.9398 -42.67578,4.0918 -14.59503,1.152 -29.55973,2.0846 -44.89453,2.7715 -15.3348,0.6869 -31.03972,1.1287 -47.11523,1.3008 -16.07552,0.172 -32.52266,0.074 -49.33985,-0.3184 -16.81719,-0.3926 -34.00464,-1.0808 -51.56445,-2.0879 -17.55982,-1.0071 -35.49153,-2.3345 -53.79492,-4.0058 -18.3034,-1.6714 -36.97942,-3.687 -56.02735,-6.0723 -19.04793,-2.3853 -38.4683,-5.1399 -58.26172,-8.2891 -19.79341,-3.1491 -39.95819,-6.6916 -60.49804,-10.6543 -20.53986,-3.9627 -41.45299,-8.3458 -62.74024,-13.1718 -21.28725,-4.8261 -42.94877,-10.0968 -64.98437,-15.836 -22.0356,-5.7392 -44.44557,-11.9463 -67.23047,-18.6484 -22.7849,-6.7022 -45.94531,-13.8985 -69.48047,-21.6133 -11.76758,-3.8574 -23.58628,-7.5822 -35.45312,-11.1758 -11.86685,-3.5936 -23.78117,-7.0563 -35.73829,-10.3926 -11.95712,-3.3362 -23.95768,-6.5454 -35.99609,-9.6308 -12.03841,-3.0854 -24.1159,-6.0477 -36.2266,-8.8887 -12.1107,-2.841 -24.2556,-5.561 -36.4297,-8.1641 -12.174,-2.603 -24.3771,-5.0874 -36.6054,-7.4589 -12.2284,-2.3716 -24.4802,-4.6309 -36.7539,-6.7774 -12.2737,-2.1465 -24.5689,-4.1814 -36.8789,-6.1094 -12.3101,-1.9279 -24.6353,-3.747 -36.9727,-5.4628 -12.3374,-1.7159 -24.6872,-3.3277 -37.043,-4.8379 -24.7115,-3.0204 -49.4505,-5.6365 -74.1816,-7.8731 -24.7311,-2.2365 -49.4541,-4.0932 -74.1328,-5.5976 -24.6787,-1.5045 -49.3128,-2.6565 -73.8672,-3.4805 -24.5544,-0.824 -49.0284,-1.3204 -73.3867,-1.5156 -24.3583,-0.1953 -48.6012,-0.089 -72.6914,0.2929 -24.0902,0.3819 -48.0272,1.0381 -71.7774,1.9453 -23.7502,0.9073 -47.314,2.0644 -70.6523,3.4454 -23.3383,1.3809 -46.4521,2.9861 -69.3067,4.789 -22.8545,1.8029 -45.4492,3.8034 -67.748,5.9766 -22.2988,2.1732 -44.3015,4.5198 -65.9727,7.0117 -21.6712,2.4919 -43.0107,5.1299 -63.9824,7.8887 -20.9717,2.7588 -41.5751,5.6373 -61.7754,8.6113 -20.2002,2.974 -39.9966,6.0441 -59.3535,9.1816 -19.3569,3.1376 -38.2751,6.3443 -56.7168,9.5938 -18.4417,3.2494 -36.4068,6.5419 -53.8613,9.8516 -17.4545,3.3096 -34.3975,6.635 -50.793,9.9531 -16.3954,3.3181 -32.2433,6.6274 -47.5078,9.9023 -30.529,6.5499 -58.7251,12.9624 -84.2988,19.0293 -25.5737,6.0669 -48.5252,11.7886 -68.5684,16.959 -20.0432,5.1704 -37.1778,9.7899 -51.1152,13.6504 -27.8748,7.7209 -42.9629,12.4082 -42.9629,12.4082 0,0 -12.5984,3.5159 -34.3086,8.9297 -10.8551,2.7069 -23.9871,5.888 -38.9629,9.3418 -14.9757,3.4538 -31.7944,7.1802 -50.0195,10.9765 -18.2251,3.7964 -37.8578,7.6639 -58.461,11.3985 -20.6031,3.7346 -42.1771,7.337 -64.2871,10.6055 -11.055,1.6342 -22.2434,3.185 -33.5117,4.6269 -11.2683,1.4419 -22.6155,2.7737 -33.9883,3.9727 -11.3727,1.1989 -22.7704,2.2644 -34.1386,3.1699 -11.3683,0.9055 -22.708,1.6514 -33.9629,2.2129 -11.2549,0.5615 -22.4264,0.9385 -33.459,1.1054 -10.9236,0.1654 -21.7053,0.1184 -32.3047,-0.1523 v 25.9844 H 833.1875 Z"
         transform="scale(0.26458333)" />
      <path
         id="path15026"
         style="fill:#ff0004;fill-opacity:1;stroke:none;stroke-width:1.68404"
         d="m -3034.9043,1383.1523 v 276.7852 c 10.5994,0.2707 21.3811,0.3177 32.3047,0.1523 11.0326,-0.1669 22.2041,-0.5439 33.459,-1.1054 11.2549,-0.5615 22.5946,-1.3074 33.9629,-2.2129 11.3682,-0.9055 22.7659,-1.971 34.1386,-3.1699 11.3728,-1.199 22.72,-2.5308 33.9883,-3.9727 11.2683,-1.4419 22.4567,-2.9927 33.5117,-4.6269 22.11,-3.2685 43.684,-6.8709 64.2871,-10.6055 20.6032,-3.7346 40.2359,-7.6021 58.461,-11.3985 18.2251,-3.7963 35.0438,-7.5227 50.0195,-10.9765 14.9758,-3.4538 28.1078,-6.6349 38.9629,-9.3418 21.7102,-5.4138 34.3086,-8.9297 34.3086,-8.9297 0,0 15.0881,-4.6873 42.9629,-12.4082 13.9374,-3.8605 31.072,-8.48 51.1152,-13.6504 20.0432,-5.1704 42.9947,-10.8921 68.5684,-16.959 25.5737,-6.0669 53.7698,-12.4794 84.2988,-19.0293 15.2645,-3.2749 31.1124,-6.5842 47.5078,-9.9023 16.3955,-3.3181 33.3385,-6.6435 50.793,-9.9531 17.4545,-3.3097 35.4196,-6.6022 53.8613,-9.8516 18.4417,-3.2495 37.3599,-6.4562 56.7168,-9.5938 19.3569,-3.1375 39.1533,-6.2076 59.3535,-9.1816 20.2003,-2.974 40.8037,-5.8525 61.7754,-8.6113 20.9717,-2.7588 42.3112,-5.3968 63.9824,-7.8887 21.6712,-2.4919 43.6739,-4.8385 65.9727,-7.0117 22.2988,-2.1732 44.8935,-4.1737 67.748,-5.9766 22.8546,-1.8029 45.9684,-3.4081 69.3067,-4.789 23.3383,-1.381 46.9021,-2.5381 70.6523,-3.4454 23.7502,-0.9072 47.6872,-1.5634 71.7774,-1.9453 24.0902,-0.3818 48.3331,-0.4882 72.6914,-0.2929 24.3583,0.1952 48.8323,0.6916 73.3867,1.5156 24.5544,0.824 49.1885,1.976 73.8672,3.4805 24.6787,1.5044 49.4017,3.3611 74.1328,5.5976 24.7311,2.2366 49.4701,4.8527 74.1816,7.8731 12.3558,1.5102 24.7056,3.122 37.043,4.8379 12.3374,1.7158 24.6626,3.5349 36.9727,5.4628 12.31,1.928 24.6052,3.9629 36.8789,6.1094 12.2737,2.1465 24.5255,4.4058 36.7539,6.7774 12.2283,2.3715 24.4314,4.8559 36.6054,7.4589 12.1741,2.6031 24.319,5.3231 36.4297,8.1641 12.1107,2.841 24.18819,5.8033 36.2266,8.8887 12.03841,3.0854 24.03897,6.2946 35.99609,9.6308 11.95712,3.3363 23.87144,6.799 35.73829,10.3926 11.86684,3.5936 23.68554,7.3184 35.45312,11.1758 23.53516,7.7148 46.69557,14.9111 69.48047,21.6133 22.7849,6.7021 45.19487,12.9092 67.23047,18.6484 22.0356,5.7392 43.69712,11.0099 64.98437,15.836 21.28725,4.826 42.20038,9.2091 62.74024,13.1718 20.53985,3.9627 40.70463,7.5052 60.49804,10.6543 19.79342,3.1492 39.21379,5.9038 58.26172,8.2891 19.04793,2.3853 37.72395,4.4009 56.02735,6.0723 18.30339,1.6713 36.2351,2.9987 53.79492,4.0058 17.55981,1.0071 34.74726,1.6953 51.56445,2.0879 16.81719,0.3926 33.26433,0.4904 49.33985,0.3184 16.07551,-0.1721 31.78043,-0.6139 47.11523,-1.3008 15.3348,-0.6869 30.2995,-1.6195 44.89453,-2.7715 14.59503,-1.152 28.81956,-2.5244 42.67578,-4.0918 13.85622,-1.5674 27.34453,-3.3308 40.462892,-5.2637 13.118363,-1.9329 25.866589,-4.0345 38.248047,-6.2832 12.381459,-2.2486 24.395508,-4.6435 36.041016,-7.1582 11.645508,-2.5146 22.9234734,-5.15 33.8339844,-7.8808 10.9105106,-2.7309 21.4543916,-5.5578 31.6308596,-8.4551 10.176468,-2.8973 19.984356,-5.865 29.427734,-8.8789 9.443379,-3.0139 18.521179,-6.0736 27.232422,-9.1543 8.711245,-3.0808 17.057045,-6.1815 25.037105,-9.2793 7.98006,-3.0978 15.59392,-6.1927 22.84375,-9.2578 7.24984,-3.0651 14.1357,-6.1014 20.65625,-9.084 6.52056,-2.9826 12.67652,-5.9114 18.46875,-8.7617 11.58448,-5.7007 21.71372,-11.0881 30.39063,-15.961 8.67691,-4.8729 15.90076,-9.232 21.67773,-12.8789 5.77698,-3.6468 10.10752,-6.5809 12.99219,-8.6035 2.88468,-2.0225 4.32422,-3.1328 4.32422,-3.1328 0,0 3.90698,-2.9785 12.14062,-7.8613 4.11683,-2.4414 9.31528,-5.3599 15.64844,-8.6192 6.33316,-3.2592 13.8003,-6.8593 22.45508,-10.6679 8.65479,-3.8086 18.49643,-7.8247 29.57813,-11.9141 5.54084,-2.0447 11.39127,-4.1074 17.55859,-6.1719 6.16732,-2.0645 12.65204,-4.1308 19.45898,-6.1816 6.80695,-2.0508 13.93675,-4.0864 21.39649,-6.0899 7.45973,-2.0034 15.24931,-3.9758 23.375,-5.8984 8.12568,-1.9226 16.58778,-3.7953 25.39258,-5.6035 8.80479,-1.8082 17.95214,-3.5508 27.44921,-5.211 9.49708,-1.6601 19.34438,-3.2382 29.54688,-4.7167 10.2025,-1.4786 20.76054,-2.8577 31.68164,-4.1211 10.9211,-1.2635 22.20457,-2.4111 33.85742,-3.4258 11.65285,-1.0147 23.6745,-1.8965 36.07227,-2.6289 12.39776,-0.7324 25.17228,-1.3159 38.32812,-1.7325 13.15584,-0.4165 26.69402,-0.6672 40.6211,-0.7343 13.92707,-0.067 28.24165,0.049 42.95312,0.3652 14.71148,0.3159 29.81909,0.832 45.32813,1.5645 15.50903,0.7324 31.42048,1.6807 47.74023,2.8632 6.3341,0.459 13.02287,1.126 19.48047,1.6563 v -34.8438 z"
         transform="scale(0.26458333)" />
    </g>
  </g>
</svg>
