<?xml version="1.0" encoding="UTF-8" standalone="no"?>
<!-- Created with Inkscape (http://www.inkscape.org/) -->

<svg
   width="1023.3391mm"
   height="50.000061mm"
   viewBox="0 0 1023.3391 50.000061"
   version="1.1"
   id="svg16035"
   inkscape:version="1.1 (c68e22c387, 2021-05-23)"
   sodipodi:docname="sw2.svg"
   xmlns:inkscape="http://www.inkscape.org/namespaces/inkscape"
   xmlns:sodipodi="http://sodipodi.sourceforge.net/DTD/sodipodi-0.dtd"
   xmlns="http://www.w3.org/2000/svg"
   xmlns:svg="http://www.w3.org/2000/svg">
  <sodipodi:namedview
     id="namedview16037"
     pagecolor="#ffffff"
     bordercolor="#666666"
     borderopacity="1.0"
     inkscape:pageshadow="2"
     inkscape:pageopacity="0.0"
     inkscape:pagecheckerboard="0"
     inkscape:document-units="mm"
     showgrid="false"
     fit-margin-top="0"
     fit-margin-left="0"
     fit-margin-right="0"
     fit-margin-bottom="0"
     inkscape:zoom="0.30823513"
     inkscape:cx="2191.5088"
     inkscape:cy="-79.484775"
     inkscape:window-width="2560"
     inkscape:window-height="1017"
     inkscape:window-x="1432"
     inkscape:window-y="-101"
     inkscape:window-maximized="1"
     inkscape:current-layer="g15836" />
  <defs
     id="defs16032" />
  <g
     inkscape:label="Layer 1"
     inkscape:groupmode="layer"
     id="layer1"
     transform="translate(400.93831,-80.5809)">
    <g
       id="g15836"
       style="stroke:none"
       transform="translate(406.18089,-485.03306)">
      <path
         id="rect5956-0"
         style="fill:#ff0000;fill-opacity:1;stroke:none;stroke-width:0.351998;stroke-opacity:1"
         d="m 216.21986,595.00281 c -2.67585,0.51098 -5.34471,1.01361 -7.99228,1.48741 -3.13611,0.56121 -6.2535,1.09653 -9.3555,1.60577 -3.102,0.50923 -6.18854,0.99243 -9.26248,1.44992 -3.07394,0.45751 -6.13562,0.88919 -9.18755,1.2952 -3.05194,0.406 -6.09421,0.78638 -9.1302,1.14112 -3.03599,0.35474 -6.06533,0.684 -9.09143,0.98772 -3.0261,0.3037 -6.04902,0.5818 -9.07128,0.83474 -3.02226,0.25292 -6.04421,0.48048 -9.0687,0.68285 -3.02448,0.20238 -6.05144,0.37961 -9.0842,0.53167 -3.03276,0.15205 -6.07121,0.27912 -9.1183,0.3811 -3.0471,0.10198 -6.10302,0.17887 -9.1705,0.231 -3.06748,0.0521 -6.14634,0.0795 -9.24027,0.082 -3.09392,0.003 -6.20271,-0.0197 -9.329145,-0.0666 -3.126424,-0.0468 -6.270619,-0.11827 -9.435599,-0.21424 -3.16498,-0.096 -6.350547,-0.2164 -9.560139,-0.36128 -3.209591,-0.14486 -6.443025,-0.3141 -9.703284,-0.50762 -3.260259,-0.19353 -6.547532,-0.41139 -9.864513,-0.65334 -3.316981,-0.24195 -6.664074,-0.50801 -10.043832,-0.79815 -3.379761,-0.29013 -6.792124,-0.60443 -10.240719,-0.94251 -3.448595,-0.33809 -6.93324,-0.70001 -10.456725,-1.0858 -3.523485,-0.3858 -7.085873,-0.79536 -10.690304,-1.22863 -3.604431,-0.43326 -7.251051,-0.8903 -10.9424836,-1.3708 -3.6914336,-0.48051 -7.42774459,-0.98459 -11.2122357,-1.5121 -3.7844912,-0.5275 -7.6169847,-1.07845 -11.5005907,-1.65272 -3.883605,-0.57427 -7.818256,-1.17167 -11.80703,-1.79247 -3.988777,-0.62079 -8.03156,-1.26491 -12.131559,-1.93199 -4.100002,-0.66709 -8.25741,-1.35728 -12.474691,-2.07042 -8.434562,-1.42628 -17.109551,-2.9444 -26.049573,-4.55347 -4.470011,-0.80454 -8.856731,-1.56461 -13.164571,-2.28181 -4.30784,-0.71719 -8.536697,-1.39146 -12.690696,-2.02434 -4.154,-0.6329 -8.23315,-1.22455 -12.24163,-1.77616 -4.00848,-0.55163 -7.94659,-1.0634 -11.81788,-1.53678 -3.8713,-0.4734 -7.676,-0.90826 -11.41843,-1.30644 -3.74243,-0.39819 -7.42239,-0.75956 -11.04428,-1.08558 -3.6219,-0.32603 -7.18579,-0.61686 -10.69548,-0.87375 -3.50968,-0.25689 -6.96514,-0.47994 -10.37094,-0.67075 -3.4058,-0.1908 -6.76149,-0.34924 -10.07173,-0.47698 -3.31025,-0.12776 -6.57484,-0.22479 -9.79786,-0.2925 -3.22301,-0.0677 -6.40466,-0.1061 -9.54877,-0.11683 -3.14411,-0.0107 -6.25096,0.006 -9.32449,0.0494 -3.07354,0.0432 -6.11374,0.11262 -9.12503,0.20676 -3.01129,0.0941 -5.99351,0.21308 -8.95087,0.3551 -2.95737,0.14203 -5.88976,0.30731 -8.80153,0.49418 -2.91177,0.18688 -5.80301,0.39534 -8.67751,0.62402 -2.8745,0.22869 -5.73221,0.47756 -8.57777,0.74502 -2.84556,0.26747 -5.67893,0.55357 -8.50387,0.85678 -2.82495,0.30321 -5.6416,0.62358 -8.45426,0.95949 -2.81267,0.33593 -5.62128,0.68737 -8.42999,1.05296 -2.80868,0.3656 -5.61742,0.74515 -8.4305,1.13737 -2.81305,0.39223 -5.63057,0.79716 -8.45632,1.21299 -5.6515,0.83166 -11.33665,1.70744 -17.08888,2.6153 -11.50446,1.81572 -23.2768,3.75964 -35.58387,5.73449 -6.15354,0.98742 -12.44086,1.98249 -18.89498,2.97326 -6.45408,0.99079 -13.07518,1.97718 -19.89645,2.94704 -3.41064,0.48493 -6.81085,0.93956 -10.19784,1.3653 -3.38695,0.42572 -6.76079,0.82265 -10.11875,1.19204 -3.35796,0.36938 -6.70009,0.71129 -10.02368,1.02716 -3.32359,0.31587 -6.62869,0.60547 -9.91257,0.87067 -3.28387,0.26519 -6.54663,0.50583 -9.78545,0.7232 -3.23882,0.21736 -6.4534,0.41152 -9.64179,0.58389 -3.18839,0.17238 -6.3505,0.32296 -9.48314,0.45319 -3.13264,0.13023 -6.23591,0.24014 -9.30743,0.33107 -3.07153,0.0909 -6.11119,0.16288 -9.11625,0.21734 -3.00506,0.0545 -5.97527,0.0914 -8.90849,0.11219 -2.93325,0.0208 -5.8297,0.0256 -8.6858,0.0156 -2.85607,-0.01 -5.6719,-0.0346 -8.44547,-0.0725 -2.77358,-0.0379 -5.50447,-0.0889 -8.19021,-0.15187 -2.6857,-0.063 -5.32638,-0.13782 -7.91887,-0.22306 -2.59252,-0.0852 -5.13712,-0.18101 -7.63106,-0.28567 -2.49396,-0.10465 -4.93718,-0.21822 -7.32721,-0.33945 -4.78007,-0.24246 -9.34694,-0.51525 -13.67928,-0.80696 -4.33234,-0.29171 -8.43028,-0.60247 -12.27211,-0.9207 -3.8418,-0.31823 -7.42778,-0.64387 -10.73629,-0.96589 -3.30851,-0.32202 -6.33942,-0.64032 -9.0718,-0.94341 -2.7324,-0.30307 -5.16617,-0.59096 -7.27966,-0.85237 -2.11349,-0.2614 -3.90655,-0.49644 -5.35832,-0.69344 -2.90359,-0.394 -4.44108,-0.63636 -4.44108,-0.63636 0,0 -1.35639,-0.29217 -4.21473,-0.77434 -1.42918,-0.24109 -3.23395,-0.52963 -5.43222,-0.85303 -2.19826,-0.3234 -4.79015,-0.68155 -7.79386,-1.06177 -3.00368,-0.38023 -6.41902,-0.78246 -10.26448,-1.19403 -3.84545,-0.41157 -8.12115,-0.83258 -12.8447,-1.25001 -2.36178,-0.2087 -4.83521,-0.4164 -7.42331,-0.6218 -2.5881,-0.2054 -5.29058,-0.40837 -8.10958,-0.60727 -2.81898,-0.19889 -5.75488,-0.39381 -8.80928,-0.58301 -3.0544,-0.18922 -6.22752,-0.37274 -9.5219,-0.54907 -3.29438,-0.17633 -6.7101,-0.34537 -10.24898,-0.50565 -3.53888,-0.16028 -7.20109,-0.31171 -10.98899,-0.45274 -3.78794,-0.14104 -7.70144,-0.27177 -11.74295,-0.39037 -4.04151,-0.11861 -8.21071,-0.22531 -12.51035,-0.31829 -4.29966,-0.093 -8.7294,-0.17233 -13.29171,-0.23651 -4.56232,-0.0642 -9.25746,-0.11306 -14.087,-0.14526 -4.82952,-0.0322 -9.79342,-0.0477 -14.89469,-0.0447 -5.10128,0.003 -10.33982,0.0244 -15.71739,0.0657 -5.37758,0.0413 -10.89456,0.10272 -16.553,0.18559 -5.5549,0.0814 -11.25378,0.1846 -17.08369,0.30903 v 30.14817 H 216.21986 Z" />
      <path
         id="path15029"
         style="fill:#0000ff;fill-opacity:1;stroke:none;stroke-width:0.351998;stroke-opacity:1"
         d="m -807.1192,565.61399 v 19.85183 c 5.82991,-0.12443 11.52879,-0.22767 17.08369,-0.30903 5.65844,-0.0829 11.17542,-0.14426 16.553,-0.18559 5.37757,-0.0413 10.61611,-0.0627 15.71739,-0.0657 5.10127,-0.003 10.06517,0.0125 14.89469,0.0447 4.82954,0.0322 9.52468,0.0811 14.087,0.14526 4.56231,0.0642 8.99205,0.14352 13.29171,0.23651 4.29964,0.093 8.46884,0.19968 12.51035,0.31829 4.04151,0.1186 7.95501,0.24933 11.74295,0.39037 3.7879,0.14103 7.45011,0.29246 10.98899,0.45274 3.53888,0.16028 6.9546,0.32932 10.24898,0.50565 3.29438,0.17633 6.4675,0.35985 9.5219,0.54907 3.0544,0.1892 5.9903,0.38412 8.80928,0.58301 2.819,0.1989 5.52148,0.40187 8.10958,0.60727 2.5881,0.2054 5.06153,0.4131 7.42331,0.6218 4.72355,0.41743 8.99925,0.83844 12.8447,1.25001 3.84546,0.41157 7.2608,0.8138 10.26448,1.19403 3.00371,0.38022 5.5956,0.73837 7.79386,1.06177 2.19827,0.3234 4.00304,0.61194 5.43222,0.85303 2.85834,0.48217 4.21473,0.77434 4.21473,0.77434 0,0 1.53749,0.24236 4.44108,0.63636 1.45177,0.197 3.24483,0.43204 5.35832,0.69344 2.11349,0.26141 4.54726,0.5493 7.27966,0.85237 2.73238,0.30309 5.76329,0.62139 9.0718,0.94341 3.30851,0.32202 6.89449,0.64766 10.73629,0.96589 3.84183,0.31823 7.93977,0.62899 12.27211,0.9207 4.33234,0.29171 8.89921,0.5645 13.67928,0.80696 2.39003,0.12123 4.83325,0.2348 7.32721,0.33945 2.49394,0.10466 5.03854,0.20043 7.63106,0.28567 2.59249,0.0852 5.23317,0.16008 7.91887,0.22306 2.68574,0.063 5.41663,0.11399 8.19021,0.15187 2.77357,0.0379 5.5894,0.0626 8.44547,0.0725 2.8561,0.01 5.75255,0.005 8.6858,-0.0156 2.93322,-0.0208 5.90343,-0.0577 8.90849,-0.11219 3.00506,-0.0545 6.04472,-0.12641 9.11625,-0.21734 3.07152,-0.0909 6.17479,-0.20084 9.30743,-0.33107 3.13264,-0.13023 6.29475,-0.28081 9.48314,-0.45319 3.18839,-0.17237 6.40297,-0.36653 9.64179,-0.58389 3.23882,-0.21737 6.50158,-0.45801 9.78545,-0.7232 3.28388,-0.2652 6.58898,-0.5548 9.91257,-0.87067 3.32359,-0.31587 6.66572,-0.65778 10.02368,-1.02716 3.35796,-0.36939 6.7318,-0.76632 10.11875,-1.19204 3.38699,-0.42574 6.7872,-0.88037 10.19784,-1.3653 6.82127,-0.96986 13.44237,-1.95625 19.89645,-2.94704 6.45412,-0.99077 12.74144,-1.98584 18.89498,-2.97326 12.30707,-1.97485 24.07941,-3.91877 35.58387,-5.73449 5.75223,-0.90786 11.43738,-1.78364 17.08888,-2.6153 2.82575,-0.41583 5.64327,-0.82076 8.45632,-1.21299 2.81308,-0.39222 5.62182,-0.77177 8.4305,-1.13737 2.80871,-0.36559 5.61732,-0.71703 8.42999,-1.05296 2.81266,-0.33591 5.62931,-0.65628 8.45426,-0.95949 2.82494,-0.30321 5.65831,-0.58931 8.50387,-0.85678 2.84556,-0.26746 5.70327,-0.51633 8.57777,-0.74502 2.8745,-0.22868 5.76574,-0.43714 8.67751,-0.62402 2.91177,-0.18687 5.84416,-0.35215 8.80153,-0.49418 2.95736,-0.14202 5.93958,-0.26096 8.95087,-0.3551 3.01129,-0.0941 6.05149,-0.16353 9.12503,-0.20676 3.07353,-0.0432 6.18038,-0.0601 9.32449,-0.0494 3.14411,0.0107 6.32576,0.0491 9.54877,0.11683 3.22302,0.0677 6.48761,0.16474 9.79786,0.2925 3.31024,0.12774 6.66593,0.28618 10.07173,0.47698 3.4058,0.19081 6.86126,0.41386 10.37094,0.67075 3.50969,0.25689 7.07358,0.54772 10.69548,0.87375 3.62189,0.32602 7.30185,0.68739 11.04428,1.08558 3.74243,0.39818 7.54713,0.83304 11.41843,1.30644 3.87129,0.47338 7.8094,0.98515 11.81788,1.53678 4.00848,0.55161 8.08763,1.14326 12.24163,1.77616 4.153999,0.63288 8.382856,1.30715 12.690696,2.02434 4.30784,0.7172 8.69456,1.47727 13.164571,2.28181 8.940022,1.60907 17.615011,3.12719 26.049573,4.55347 4.217281,0.71314 8.374689,1.40333 12.474691,2.07042 4.099999,0.66708 8.142782,1.3112 12.131559,1.93199 3.988774,0.6208 7.923425,1.2182 11.80703,1.79247 3.883606,0.57427 7.7160995,1.12522 11.5005907,1.65272 3.78449111,0.52751 7.5208021,1.03159 11.2122357,1.5121 3.6914326,0.4805 7.3380526,0.93754 10.9424836,1.3708 3.604431,0.43327 7.166819,0.84283 10.690304,1.22863 3.523485,0.38579 7.00813,0.74771 10.456725,1.0858 3.448595,0.33808 6.860958,0.65238 10.240719,0.94251 3.379758,0.29014 6.726851,0.5562 10.043832,0.79815 3.316981,0.24195 6.604254,0.45981 9.864513,0.65334 3.260259,0.19352 6.493693,0.36276 9.703284,0.50762 3.209592,0.14488 6.395159,0.2653 9.560139,0.36128 3.16498,0.096 6.309175,0.16741 9.435599,0.21424 3.126435,0.0468 6.235225,0.0691 9.329145,0.0666 3.09393,-0.003 6.17279,-0.0299 9.24027,-0.082 3.06748,-0.0521 6.1234,-0.12902 9.1705,-0.231 3.04709,-0.10198 6.08554,-0.22905 9.1183,-0.3811 3.03276,-0.15206 6.05972,-0.32929 9.0842,-0.53167 3.02449,-0.20237 6.04644,-0.42993 9.0687,-0.68285 3.02226,-0.25294 6.04518,-0.53104 9.07128,-0.83474 3.0261,-0.30372 6.05544,-0.63298 9.09143,-0.98772 3.03599,-0.35474 6.07826,-0.73512 9.1302,-1.14112 3.05193,-0.40601 6.11361,-0.83769 9.18755,-1.2952 3.07394,-0.45749 6.16048,-0.94069 9.26248,-1.44992 3.102,-0.50924 6.21939,-1.04456 9.3555,-1.60577 2.64757,-0.4738 5.31643,-0.97643 7.99228,-1.48741 v -29.38882 z" />
      <path
         id="path16216"
         style="fill:#ff0000;fill-opacity:1;stroke:none;stroke-width:0.351998;stroke-opacity:1"
         d="m 216.21986,595.00281 c -2.67585,0.51098 -5.34471,1.01361 -7.99228,1.48741 -3.13611,0.56121 -6.2535,1.09653 -9.3555,1.60577 -3.102,0.50923 -6.18854,0.99243 -9.26248,1.44992 -3.07394,0.45751 -6.13562,0.88919 -9.18755,1.2952 -3.05194,0.406 -6.09421,0.78638 -9.1302,1.14112 -3.03599,0.35474 -6.06533,0.684 -9.09143,0.98772 -3.0261,0.3037 -6.04902,0.5818 -9.07128,0.83474 -3.02226,0.25292 -6.04421,0.48048 -9.0687,0.68285 -3.02448,0.20238 -6.05144,0.37961 -9.0842,0.53167 -3.03276,0.15205 -6.07121,0.27912 -9.1183,0.3811 -3.0471,0.10198 -6.10302,0.17887 -9.1705,0.231 -3.06748,0.0521 -6.14634,0.0795 -9.24027,0.082 -3.09392,0.003 -6.20271,-0.0197 -9.329145,-0.0666 -3.126424,-0.0468 -6.270619,-0.11827 -9.435599,-0.21424 -3.16498,-0.096 -6.350547,-0.2164 -9.560139,-0.36128 -3.209591,-0.14486 -6.443025,-0.3141 -9.703284,-0.50762 -3.260259,-0.19353 -6.547532,-0.41139 -9.864513,-0.65334 -3.316981,-0.24195 -6.664074,-0.50801 -10.043832,-0.79815 -3.379761,-0.29013 -6.792124,-0.60443 -10.240719,-0.94251 -3.448595,-0.33809 -6.93324,-0.70001 -10.456725,-1.0858 -3.523485,-0.3858 -7.085873,-0.79536 -10.690304,-1.22863 -3.604431,-0.43326 -7.251051,-0.8903 -10.9424836,-1.3708 -3.6914336,-0.48051 -7.42774459,-0.98459 -11.2122357,-1.5121 -3.7844912,-0.5275 -7.6169847,-1.07845 -11.5005907,-1.65272 -3.883605,-0.57427 -7.818256,-1.17167 -11.80703,-1.79247 -3.988777,-0.62079 -8.03156,-1.26491 -12.131559,-1.93199 -4.100002,-0.66709 -8.25741,-1.35728 -12.474691,-2.07042 -8.434562,-1.42628 -17.109551,-2.9444 -26.049573,-4.55347 -4.470011,-0.80454 -8.856731,-1.56461 -13.164571,-2.28181 -4.30784,-0.71719 -8.536697,-1.39146 -12.690696,-2.02434 -4.154,-0.6329 -8.23315,-1.22455 -12.24163,-1.77616 -4.00848,-0.55163 -7.94659,-1.0634 -11.81788,-1.53678 -3.8713,-0.4734 -7.676,-0.90826 -11.41843,-1.30644 -3.74243,-0.39819 -7.42239,-0.75956 -11.04428,-1.08558 -3.6219,-0.32603 -7.18579,-0.61686 -10.69548,-0.87375 -3.50968,-0.25689 -6.96514,-0.47994 -10.37094,-0.67075 -3.4058,-0.1908 -6.76149,-0.34924 -10.07173,-0.47698 -3.31025,-0.12776 -6.57484,-0.22479 -9.79786,-0.2925 -3.22301,-0.0677 -6.40466,-0.1061 -9.54877,-0.11683 -3.14411,-0.0107 -6.25096,0.006 -9.32449,0.0494 -3.07354,0.0432 -6.11374,0.11262 -9.12503,0.20676 -3.01129,0.0941 -5.99351,0.21308 -8.95087,0.3551 -2.95737,0.14203 -5.88976,0.30731 -8.80153,0.49418 -2.91177,0.18688 -5.80301,0.39534 -8.67751,0.62402 -2.8745,0.22869 -5.73221,0.47756 -8.57777,0.74502 -2.84556,0.26747 -5.67893,0.55357 -8.50387,0.85678 -2.82495,0.30321 -5.6416,0.62358 -8.45426,0.95949 -2.81267,0.33593 -5.62128,0.68737 -8.42999,1.05296 -2.80868,0.3656 -5.61742,0.74515 -8.4305,1.13737 -2.81305,0.39223 -5.63057,0.79716 -8.45632,1.21299 -5.6515,0.83166 -11.33665,1.70744 -17.08888,2.6153 -11.50446,1.81572 -23.2768,3.75964 -35.58387,5.73449 -6.15354,0.98742 -12.44086,1.98249 -18.89498,2.97326 -6.45408,0.99079 -13.07518,1.97718 -19.89645,2.94704 -3.41064,0.48493 -6.81085,0.93956 -10.19784,1.3653 -3.38695,0.42572 -6.76079,0.82265 -10.11875,1.19204 -3.35796,0.36938 -6.70009,0.71129 -10.02368,1.02716 -3.32359,0.31587 -6.62869,0.60547 -9.91257,0.87067 -3.28387,0.26519 -6.54663,0.50583 -9.78545,0.7232 -3.23882,0.21736 -6.4534,0.41152 -9.64179,0.58389 -3.18839,0.17238 -6.3505,0.32296 -9.48314,0.45319 -3.13264,0.13023 -6.23591,0.24014 -9.30743,0.33107 -3.07153,0.0909 -6.11119,0.16288 -9.11625,0.21734 -3.00506,0.0545 -5.97527,0.0914 -8.90849,0.11219 -2.93325,0.0208 -5.8297,0.0256 -8.6858,0.0156 -2.85607,-0.01 -5.6719,-0.0346 -8.44547,-0.0725 -2.77358,-0.0379 -5.50447,-0.0889 -8.19021,-0.15187 -2.6857,-0.063 -5.32638,-0.13782 -7.91887,-0.22306 -2.59252,-0.0852 -5.13712,-0.18101 -7.63106,-0.28567 -2.49396,-0.10465 -4.93718,-0.21822 -7.32721,-0.33945 -4.78007,-0.24246 -9.34694,-0.51525 -13.67928,-0.80696 -4.33234,-0.29171 -8.43028,-0.60247 -12.27211,-0.9207 -3.8418,-0.31823 -7.42778,-0.64387 -10.73629,-0.96589 -3.30851,-0.32202 -6.33942,-0.64032 -9.0718,-0.94341 -2.7324,-0.30307 -5.16617,-0.59096 -7.27966,-0.85237 -2.11349,-0.2614 -3.90655,-0.49644 -5.35832,-0.69344 -2.90359,-0.394 -4.44108,-0.63636 -4.44108,-0.63636 0,0 -1.35639,-0.29217 -4.21473,-0.77434 -1.42918,-0.24109 -3.23395,-0.52963 -5.43222,-0.85303 -2.19826,-0.3234 -4.79015,-0.68155 -7.79386,-1.06177 -3.00368,-0.38023 -6.41902,-0.78246 -10.26448,-1.19403 -3.84545,-0.41157 -8.12115,-0.83258 -12.8447,-1.25001 -2.36178,-0.2087 -4.83521,-0.4164 -7.42331,-0.6218 -2.5881,-0.2054 -5.29058,-0.40837 -8.10958,-0.60727 -2.81898,-0.19889 -5.75488,-0.39381 -8.80928,-0.58301 -3.0544,-0.18922 -6.22752,-0.37274 -9.5219,-0.54907 -3.29438,-0.17633 -6.7101,-0.34537 -10.24898,-0.50565 -3.53888,-0.16028 -7.20109,-0.31171 -10.98899,-0.45274 -3.78794,-0.14104 -7.70144,-0.27177 -11.74295,-0.39037 -4.04151,-0.11861 -8.21071,-0.22531 -12.51035,-0.31829 -4.29966,-0.093 -8.7294,-0.17233 -13.29171,-0.23651 -4.56232,-0.0642 -9.25746,-0.11306 -14.087,-0.14526 -4.82952,-0.0322 -9.79342,-0.0477 -14.89469,-0.0447 -5.10128,0.003 -10.33982,0.0244 -15.71739,0.0657 -5.37758,0.0413 -10.89456,0.10272 -16.553,0.18559 -5.5549,0.0814 -11.25378,0.1846 -17.08369,0.30903 v 30.14817 H 216.21986 Z" />
      <path
         id="path16218"
         style="fill:#0000ff;fill-opacity:1;stroke:none;stroke-width:0.351998;stroke-opacity:1"
         d="m -807.1192,565.61399 v 19.85183 c 5.82991,-0.12443 11.52879,-0.22767 17.08369,-0.30903 5.65844,-0.0829 11.17542,-0.14426 16.553,-0.18559 5.37757,-0.0413 10.61611,-0.0627 15.71739,-0.0657 5.10127,-0.003 10.06517,0.0125 14.89469,0.0447 4.82954,0.0322 9.52468,0.0811 14.087,0.14526 4.56231,0.0642 8.99205,0.14352 13.29171,0.23651 4.29964,0.093 8.46884,0.19968 12.51035,0.31829 4.04151,0.1186 7.95501,0.24933 11.74295,0.39037 3.7879,0.14103 7.45011,0.29246 10.98899,0.45274 3.53888,0.16028 6.9546,0.32932 10.24898,0.50565 3.29438,0.17633 6.4675,0.35985 9.5219,0.54907 3.0544,0.1892 5.9903,0.38412 8.80928,0.58301 2.819,0.1989 5.52148,0.40187 8.10958,0.60727 2.5881,0.2054 5.06153,0.4131 7.42331,0.6218 4.72355,0.41743 8.99925,0.83844 12.8447,1.25001 3.84546,0.41157 7.2608,0.8138 10.26448,1.19403 3.00371,0.38022 5.5956,0.73837 7.79386,1.06177 2.19827,0.3234 4.00304,0.61194 5.43222,0.85303 2.85834,0.48217 4.21473,0.77434 4.21473,0.77434 0,0 1.53749,0.24236 4.44108,0.63636 1.45177,0.197 3.24483,0.43204 5.35832,0.69344 2.11349,0.26141 4.54726,0.5493 7.27966,0.85237 2.73238,0.30309 5.76329,0.62139 9.0718,0.94341 3.30851,0.32202 6.89449,0.64766 10.73629,0.96589 3.84183,0.31823 7.93977,0.62899 12.27211,0.9207 4.33234,0.29171 8.89921,0.5645 13.67928,0.80696 2.39003,0.12123 4.83325,0.2348 7.32721,0.33945 2.49394,0.10466 5.03854,0.20043 7.63106,0.28567 2.59249,0.0852 5.23317,0.16008 7.91887,0.22306 2.68574,0.063 5.41663,0.11399 8.19021,0.15187 2.77357,0.0379 5.5894,0.0626 8.44547,0.0725 2.8561,0.01 5.75255,0.005 8.6858,-0.0156 2.93322,-0.0208 5.90343,-0.0577 8.90849,-0.11219 3.00506,-0.0545 6.04472,-0.12641 9.11625,-0.21734 3.07152,-0.0909 6.17479,-0.20084 9.30743,-0.33107 3.13264,-0.13023 6.29475,-0.28081 9.48314,-0.45319 3.18839,-0.17237 6.40297,-0.36653 9.64179,-0.58389 3.23882,-0.21737 6.50158,-0.45801 9.78545,-0.7232 3.28388,-0.2652 6.58898,-0.5548 9.91257,-0.87067 3.32359,-0.31587 6.66572,-0.65778 10.02368,-1.02716 3.35796,-0.36939 6.7318,-0.76632 10.11875,-1.19204 3.38699,-0.42574 6.7872,-0.88037 10.19784,-1.3653 6.82127,-0.96986 13.44237,-1.95625 19.89645,-2.94704 6.45412,-0.99077 12.74144,-1.98584 18.89498,-2.97326 12.30707,-1.97485 24.07941,-3.91877 35.58387,-5.73449 5.75223,-0.90786 11.43738,-1.78364 17.08888,-2.6153 2.82575,-0.41583 5.64327,-0.82076 8.45632,-1.21299 2.81308,-0.39222 5.62182,-0.77177 8.4305,-1.13737 2.80871,-0.36559 5.61732,-0.71703 8.42999,-1.05296 2.81266,-0.33591 5.62931,-0.65628 8.45426,-0.95949 2.82494,-0.30321 5.65831,-0.58931 8.50387,-0.85678 2.84556,-0.26746 5.70327,-0.51633 8.57777,-0.74502 2.8745,-0.22868 5.76574,-0.43714 8.67751,-0.62402 2.91177,-0.18687 5.84416,-0.35215 8.80153,-0.49418 2.95736,-0.14202 5.93958,-0.26096 8.95087,-0.3551 3.01129,-0.0941 6.05149,-0.16353 9.12503,-0.20676 3.07353,-0.0432 6.18038,-0.0601 9.32449,-0.0494 3.14411,0.0107 6.32576,0.0491 9.54877,0.11683 3.22302,0.0677 6.48761,0.16474 9.79786,0.2925 3.31024,0.12774 6.66593,0.28618 10.07173,0.47698 3.4058,0.19081 6.86126,0.41386 10.37094,0.67075 3.50969,0.25689 7.07358,0.54772 10.69548,0.87375 3.62189,0.32602 7.30185,0.68739 11.04428,1.08558 3.74243,0.39818 7.54713,0.83304 11.41843,1.30644 3.87129,0.47338 7.8094,0.98515 11.81788,1.53678 4.00848,0.55161 8.08763,1.14326 12.24163,1.77616 4.153999,0.63288 8.382856,1.30715 12.690696,2.02434 4.30784,0.7172 8.69456,1.47727 13.164571,2.28181 8.940022,1.60907 17.615011,3.12719 26.049573,4.55347 4.217281,0.71314 8.374689,1.40333 12.474691,2.07042 4.099999,0.66708 8.142782,1.3112 12.131559,1.93199 3.988774,0.6208 7.923425,1.2182 11.80703,1.79247 3.883606,0.57427 7.7160995,1.12522 11.5005907,1.65272 3.78449111,0.52751 7.5208021,1.03159 11.2122357,1.5121 3.6914326,0.4805 7.3380526,0.93754 10.9424836,1.3708 3.604431,0.43327 7.166819,0.84283 10.690304,1.22863 3.523485,0.38579 7.00813,0.74771 10.456725,1.0858 3.448595,0.33808 6.860958,0.65238 10.240719,0.94251 3.379758,0.29014 6.726851,0.5562 10.043832,0.79815 3.316981,0.24195 6.604254,0.45981 9.864513,0.65334 3.260259,0.19352 6.493693,0.36276 9.703284,0.50762 3.209592,0.14488 6.395159,0.2653 9.560139,0.36128 3.16498,0.096 6.309175,0.16741 9.435599,0.21424 3.126435,0.0468 6.235225,0.0691 9.329145,0.0666 3.09393,-0.003 6.17279,-0.0299 9.24027,-0.082 3.06748,-0.0521 6.1234,-0.12902 9.1705,-0.231 3.04709,-0.10198 6.08554,-0.22905 9.1183,-0.3811 3.03276,-0.15206 6.05972,-0.32929 9.0842,-0.53167 3.02449,-0.20237 6.04644,-0.42993 9.0687,-0.68285 3.02226,-0.25294 6.04518,-0.53104 9.07128,-0.83474 3.0261,-0.30372 6.05544,-0.63298 9.09143,-0.98772 3.03599,-0.35474 6.07826,-0.73512 9.1302,-1.14112 3.05193,-0.40601 6.11361,-0.83769 9.18755,-1.2952 3.07394,-0.45749 6.16048,-0.94069 9.26248,-1.44992 3.102,-0.50924 6.21939,-1.04456 9.3555,-1.60577 2.64757,-0.4738 5.31643,-0.97643 7.99228,-1.48741 v -29.38882 z" />
    </g>
  </g>
</svg>
