<?xml version="1.0" encoding="UTF-8" standalone="no"?>
<!-- Created with Inkscape (http://www.inkscape.org/) -->

<svg
   width="1023.4378mm"
   height="78.097038mm"
   viewBox="0 0 1023.4378 78.097038"
   version="1.1"
   id="svg5908"
   sodipodi:docname="swoosh1..svg"
   inkscape:version="1.1 (c68e22c387, 2021-05-23)"
   xmlns:inkscape="http://www.inkscape.org/namespaces/inkscape"
   xmlns:sodipodi="http://sodipodi.sourceforge.net/DTD/sodipodi-0.dtd"
   xmlns="http://www.w3.org/2000/svg"
   xmlns:svg="http://www.w3.org/2000/svg">
  <sodipodi:namedview
     id="namedview5910"
     pagecolor="#ffffff"
     bordercolor="#666666"
     borderopacity="1.0"
     inkscape:pageshadow="2"
     inkscape:pageopacity="0.0"
     inkscape:pagecheckerboard="0"
     inkscape:document-units="mm"
     showgrid="false"
     inkscape:zoom="0.32"
     inkscape:cx="1276.5625"
     inkscape:cy="-120.3125"
     inkscape:window-width="2560"
     inkscape:window-height="1017"
     inkscape:window-x="1432"
     inkscape:window-y="-8"
     inkscape:window-maximized="1"
     inkscape:current-layer="layer1"
     fit-margin-top="0"
     fit-margin-left="0"
     fit-margin-right="0"
     fit-margin-bottom="0" />
  <defs
     id="defs5905" />
  <g
     inkscape:label="Layer 1"
     inkscape:groupmode="layer"
     id="layer1"
     transform="translate(475.56581,-436.23642)">
    <path
       id="rect5956"
       style="fill:#ff2a2a;fill-opacity:1;stroke:none;stroke-width:1.66277;stroke-opacity:1"
       d="m 2070.6973,1754.8535 c -6.429,1.7955 -12.9376,3.7012 -19.2793,5.3789 -12.3532,3.2681 -24.5389,6.3167 -36.5528,9.1563 -12.0139,2.8395 -23.8557,5.4709 -35.5195,7.9062 -11.6638,2.4353 -23.1503,4.6752 -34.4531,6.7305 -11.3029,2.0553 -22.4225,3.9255 -33.3535,5.625 -10.9311,1.6994 -21.6724,3.2278 -32.2207,4.5957 -10.5483,1.3678 -20.9039,2.5762 -31.0586,3.6367 -10.1548,1.0605 -20.1091,1.9727 -29.8594,2.75 -9.7503,0.7774 -19.2959,1.4191 -28.6309,1.9375 -9.3349,0.5184 -18.4584,0.9136 -27.3672,1.1973 -8.9087,0.2837 -17.6025,0.456 -26.0742,0.5293 -8.4717,0.073 -16.7223,0.047 -24.7461,-0.066 -8.0237,-0.113 -15.8198,-0.3129 -23.3847,-0.5879 -15.1299,-0.5501 -29.3312,-1.4003 -42.5606,-2.4531 -13.2294,-1.0529 -25.4866,-2.3081 -36.7285,-3.67 -11.2419,-1.3618 -21.4692,-2.8296 -30.6367,-4.3066 -9.1675,-1.4771 -17.2752,-2.9629 -24.2813,-4.3613 -7.006,-1.3985 -12.9102,-2.7099 -17.6679,-3.836 -9.5154,-2.2522 -14.4473,-3.7656 -14.4473,-3.7656 0,0 -4.9314,-2.343 -14.3125,-6.1211 -4.6906,-1.889 -10.4946,-4.1383 -17.3496,-6.6309 -6.855,-2.4925 -14.7612,-5.229 -23.6602,-8.0976 -8.8989,-2.8687 -18.789,-5.8693 -29.6113,-8.8867 -10.8223,-3.0175 -22.576,-6.0514 -35.2012,-8.9903 -12.6251,-2.9388 -26.1223,-5.7811 -40.4297,-8.414 -7.1537,-1.3165 -14.5108,-2.582 -22.0625,-3.7793 -7.5516,-1.1974 -15.2978,-2.3272 -23.2324,-3.377 -7.9345,-1.0498 -16.0569,-2.0187 -24.3594,-2.8926 -8.3024,-0.8738 -16.7842,-1.6527 -25.4394,-2.3222 -8.6552,-0.6695 -17.4837,-1.2293 -26.4766,-1.666 -8.9928,-0.4367 -18.1513,-0.7503 -27.4668,-0.9258 -9.3155,-0.1755 -18.7871,-0.2138 -28.4101,-0.1 -9.6231,0.1141 -19.397,0.3803 -29.3125,0.8125 -9.9156,0.4322 -19.9731,1.0318 -30.166,1.8105 -10.193,0.7787 -20.5213,1.7371 -30.9766,2.8906 -10.4553,1.1536 -21.0376,2.5018 -31.7402,4.0586 -10.7026,1.5569 -21.5261,3.322 -32.461,5.3106 -10.9348,1.9886 -21.9808,4.1997 -33.13278,6.6484 -11.15198,2.4488 -22.40961,5.135 -33.76367,8.0723 -11.35407,2.9373 -22.80463,6.1258 -34.34571,9.5801 -11.54108,3.4543 -23.17173,7.176 -34.88476,11.1757 -11.71303,3.9998 -23.509,8.2781 -35.37891,12.8516 -11.86991,4.5735 -23.81445,9.4414 -35.82617,14.6172 -6.00586,2.5879 -12.05362,5.0772 -18.14062,7.4707 -6.08701,2.3935 -12.21241,4.6905 -18.375,6.8945 -6.1626,2.204 -12.36308,4.3146 -18.59571,6.334 -6.23263,2.0194 -12.49781,3.9475 -18.79492,5.7871 -6.29711,1.8397 -12.62639,3.5911 -18.98242,5.2559 -6.35604,1.6648 -12.73903,3.2434 -19.14844,4.7383 -12.81881,2.9896 -25.73932,5.6452 -38.73828,7.9843 -12.99896,2.3392 -26.07627,4.3621 -39.21094,6.0899 -13.13467,1.7278 -26.3268,3.159 -39.55273,4.3144 -13.22594,1.1555 -26.48701,2.036 -39.75977,2.6582 -13.27276,0.6223 -26.55688,0.9871 -39.83203,1.1153 -13.27515,0.1282 -26.54035,0.018 -39.77344,-0.3086 -13.23309,-0.3268 -26.43348,-0.8706 -39.58008,-1.6133 -13.14659,-0.7427 -26.2402,-1.6832 -39.25585,-2.8027 -13.01566,-1.1195 -25.95466,-2.4178 -38.79493,-3.875 -12.84027,-1.4572 -25.58072,-3.0743 -38.20117,-4.8301 -12.62045,-1.7558 -25.12037,-3.6507 -37.47656,-5.666 -12.35619,-2.0153 -24.56971,-4.151 -36.61719,-6.3867 -12.04748,-2.2357 -23.92871,-4.5713 -35.62304,-6.9883 -11.69434,-2.417 -23.2013,-4.9154 -34.49805,-7.4746 -11.29675,-2.5592 -22.38356,-5.1796 -33.23828,-7.8418 -10.85472,-2.6623 -21.47745,-5.3656 -31.84571,-8.0918 -10.368248,-2.7263 -20.481014,-5.4754 -30.318356,-8.2266 -19.674682,-5.5023 -38.24295,-11.0155 -55.527343,-16.3828 -17.2843939,-5.3673 -33.285645,-10.5884 -47.824219,-15.5078 -14.538575,-4.9194 -27.615509,-9.5365 -39.052734,-13.6953 -11.437226,-4.1588 -21.234497,-7.86 -29.214844,-10.9453 C -110.05835,1728.7102 -118.75,1725 -118.75,1725 c 0,0 -7.08057,-2.4414 -20.54492,-6.2012 -6.73218,-1.8799 -15.05915,-4.0896 -24.89649,-6.4883 -9.83734,-2.3986 -21.18457,-4.9863 -33.95312,-7.623 -12.76856,-2.6367 -26.95856,-5.322 -42.48438,-7.916 -7.7629,-1.297 -15.85968,-2.571 -24.27929,-3.8047 -8.41961,-1.2337 -17.16223,-2.4272 -26.2168,-3.5625 -9.05457,-1.1353 -18.42207,-2.2131 -28.08984,-3.2148 -9.66778,-1.0018 -19.63724,-1.9267 -29.89649,-2.7598 -10.25924,-0.8331 -20.80775,-1.5737 -31.63672,-2.2031 -10.82897,-0.6295 -21.9375,-1.1485 -33.31445,-1.5391 -11.37695,-0.3906 -23.02259,-0.6528 -34.92578,-0.7695 -11.90319,-0.1168 -24.06302,-0.089 -36.4707,0.1035 -12.40769,0.1922 -25.0627,0.5476 -37.95313,1.084 -12.89043,0.5363 -26.0177,1.2544 -39.36914,2.1699 -13.35144,0.9155 -26.92805,2.0296 -40.71875,3.3594 -13.7907,1.3298 -27.79569,2.8751 -42.00391,4.6543 -14.20822,1.7791 -28.61866,3.791 -43.22265,6.0547 -14.604,2.2636 -29.40088,4.7792 -44.37891,7.5624 -14.97803,2.7833 -30.13843,5.8341 -45.46875,9.1719 -15.33031,3.3379 -30.83133,6.963 -46.49219,10.8907 -15.66085,3.9276 -31.48151,8.1584 -47.45117,12.7109 -15.96966,4.5524 -32.08703,9.4263 -48.34375,14.6387 -16.25671,5.2124 -32.6518,10.7644 -49.17383,16.6718 -16.52202,5.9075 -33.17194,12.1711 -49.93754,18.8086 -16.7656,6.6376 -33.6473,13.648 -50.6347,21.0508 -16.9874,7.4028 -34.0801,15.1973 -51.2676,23.4004 -8.5937,4.1016 -17.1606,8.0434 -25.7012,11.8301 -8.5406,3.7866 -17.0542,7.4187 -25.539,10.8984 -8.4849,3.4797 -16.9427,6.8076 -25.3692,9.9883 -8.4265,3.1807 -16.8218,6.2139 -25.1875,9.1035 -8.3656,2.8896 -16.6998,5.6356 -25.0019,8.2422 -8.3022,2.6066 -16.5725,5.0728 -24.8086,7.4043 -8.2361,2.3314 -16.4399,4.5275 -24.6074,6.5918 -8.1675,2.0643 -16.2983,3.9976 -24.3946,5.8027 -8.0963,1.8051 -16.1571,3.4813 -24.1797,5.0352 -8.0225,1.5539 -16.0069,2.9843 -23.9531,4.2949 -7.9462,1.3106 -15.8554,2.5028 -23.7226,3.5781 -7.8673,1.0754 -15.6928,2.0348 -23.4786,2.8828 -7.7858,0.8481 -15.5307,1.5843 -23.2324,2.2129 -7.7017,0.6287 -15.3615,1.1492 -22.9765,1.5664 -7.6151,0.4173 -15.1851,0.7316 -22.711,0.9454 -7.5259,0.2137 -15.0073,0.3273 -22.4414,0.3457 -7.4341,0.018 -14.8224,-0.059 -22.1621,-0.2286 -7.3397,-0.1692 -14.6303,-0.4305 -21.873,-0.7793 -7.2428,-0.3487 -14.4369,-0.7843 -21.5801,-1.3046 -7.1433,-0.5204 -14.2362,-1.1247 -21.2774,-1.8086 -14.0823,-1.368 -27.9586,-3.0547 -41.6172,-5.0293 -13.6585,-1.9747 -27.0983,-4.2382 -40.3125,-6.7559 -13.2141,-2.5177 -26.202,-5.2901 -38.9511,-8.2871 -12.7491,-2.997 -25.26,-6.2182 -37.5235,-9.6309 -12.2635,-3.4126 -24.2798,-7.0167 -36.0371,-10.7812 -2.3525,-0.7533 -4.5686,-1.5838 -6.9004,-2.3496 v 68.9199 h 3868.1114 z"
       transform="scale(0.26458333)" />
    <path
       id="path12920"
       style="fill:#0000ff;fill-opacity:1;stroke:none;stroke-width:1.66277;stroke-opacity:1"
       d="m -1797.4141,1648.7676 v 226.25 c 2.3318,0.7658 4.5479,1.5963 6.9004,2.3496 11.7573,3.7645 23.7736,7.3686 36.0371,10.7812 12.2635,3.4127 24.7744,6.6339 37.5235,9.6309 12.7491,2.997 25.737,5.7694 38.9511,8.2871 13.2142,2.5177 26.654,4.7812 40.3125,6.7559 13.6586,1.9746 27.5349,3.6613 41.6172,5.0293 7.0412,0.6839 14.1341,1.2882 21.2774,1.8086 7.1432,0.5203 14.3373,0.9559 21.5801,1.3046 7.2427,0.3488 14.5333,0.6101 21.873,0.7793 7.3397,0.1692 14.728,0.2469 22.1621,0.2286 7.4341,-0.018 14.9155,-0.132 22.4414,-0.3457 7.5259,-0.2138 15.0959,-0.5281 22.711,-0.9454 7.615,-0.4172 15.2748,-0.9377 22.9765,-1.5664 7.7017,-0.6286 15.4466,-1.3648 23.2324,-2.2129 7.7858,-0.848 15.6113,-1.8074 23.4786,-2.8828 7.8672,-1.0753 15.7764,-2.2675 23.7226,-3.5781 7.9462,-1.3106 15.9306,-2.741 23.9531,-4.2949 8.0226,-1.5539 16.0834,-3.2301 24.1797,-5.0352 8.0963,-1.8051 16.2271,-3.7384 24.3946,-5.8027 8.1675,-2.0643 16.3713,-4.2604 24.6074,-6.5918 8.2361,-2.3315 16.5064,-4.7977 24.8086,-7.4043 8.3021,-2.6066 16.6363,-5.3526 25.0019,-8.2422 8.3657,-2.8896 16.761,-5.9228 25.1875,-9.1035 8.4265,-3.1807 16.8843,-6.5086 25.3692,-9.9883 8.4848,-3.4797 16.9984,-7.1118 25.539,-10.8984 8.5406,-3.7867 17.1075,-7.7285 25.7012,-11.8301 17.1875,-8.2031 34.2802,-15.9976 51.2676,-23.4004 16.9874,-7.4028 33.8691,-14.4132 50.6347,-21.0508 16.7656,-6.6375 33.41552,-12.9011 49.93754,-18.8086 16.52203,-5.9074 32.91712,-11.4594 49.17383,-16.6718 16.25672,-5.2124 32.37409,-10.0863 48.34375,-14.6387 15.96966,-4.5525 31.79032,-8.7833 47.45117,-12.7109 15.66086,-3.9277 31.16188,-7.5528 46.49219,-10.8907 15.33032,-3.3378 30.49072,-6.3886 45.46875,-9.1719 14.97803,-2.7832 29.77491,-5.2988 44.37891,-7.5624 14.60399,-2.2637 29.01443,-4.2756 43.22265,-6.0547 14.20822,-1.7792 28.21321,-3.3245 42.00391,-4.6543 13.7907,-1.3298 27.36731,-2.4439 40.71875,-3.3594 13.35144,-0.9155 26.47871,-1.6336 39.36914,-2.1699 12.89043,-0.5364 25.54544,-0.8918 37.95313,-1.084 12.40768,-0.1923 24.56751,-0.2203 36.4707,-0.1035 11.90319,0.1167 23.54883,0.3789 34.92578,0.7695 11.37695,0.3906 22.48548,0.9096 33.31445,1.5391 10.82897,0.6294 21.37748,1.37 31.63672,2.2031 10.25925,0.8331 20.22871,1.758 29.89649,2.7598 9.66777,1.0017 19.03527,2.0795 28.08984,3.2148 9.05457,1.1353 17.79719,2.3288 26.2168,3.5625 8.41961,1.2337 16.51639,2.5077 24.27929,3.8047 15.52582,2.594 29.71582,5.2793 42.48438,7.916 12.76855,2.6367 24.11578,5.2244 33.95312,7.623 9.83734,2.3987 18.16431,4.6084 24.89649,6.4883 13.46435,3.7598 20.54492,6.2012 20.54492,6.2012 0,0 8.69165,3.7102 24.652344,9.8809 7.980347,3.0853 17.777618,6.7865 29.214844,10.9453 11.437225,4.1588 24.514159,8.7759 39.052734,13.6953 14.538574,4.9194 30.5398251,10.1405 47.824219,15.5078 17.284393,5.3673 35.852661,10.8805 55.527343,16.3828 9.837342,2.7512 19.950108,5.5003 30.318356,8.2266 10.36826,2.7262 20.99099,5.4295 31.84571,8.0918 10.85472,2.6622 21.94153,5.2826 33.23828,7.8418 11.29675,2.5592 22.80371,5.0576 34.49805,7.4746 11.69433,2.417 23.57556,4.7526 35.62304,6.9883 12.04748,2.2357 24.261,4.3714 36.61719,6.3867 12.35619,2.0153 24.85611,3.9102 37.47656,5.666 12.62045,1.7558 25.3609,3.3729 38.20117,4.8301 12.84027,1.4572 25.77927,2.7555 38.79493,3.875 13.01565,1.1195 26.10926,2.06 39.25585,2.8027 13.1466,0.7427 26.34699,1.2865 39.58008,1.6133 13.23309,0.3268 26.49829,0.4368 39.77344,0.3086 13.27515,-0.1282 26.55927,-0.493 39.83203,-1.1153 13.27276,-0.6222 26.53383,-1.5027 39.75977,-2.6582 13.22593,-1.1554 26.41806,-2.5866 39.55273,-4.3144 13.13467,-1.7278 26.21198,-3.7507 39.21094,-6.0899 12.99896,-2.3391 25.91947,-4.9947 38.73828,-7.9843 6.40941,-1.4949 12.7924,-3.0735 19.14844,-4.7383 6.35603,-1.6648 12.68531,-3.4162 18.98242,-5.2559 6.29711,-1.8396 12.56229,-3.7677 18.79492,-5.7871 6.23263,-2.0194 12.43311,-4.13 18.59571,-6.334 6.16259,-2.204 12.28799,-4.501 18.375,-6.8945 6.087,-2.3935 12.13476,-4.8828 18.14062,-7.4707 12.01172,-5.1758 23.95626,-10.0437 35.82617,-14.6172 11.86991,-4.5735 23.66588,-8.8518 35.37891,-12.8516 11.71303,-3.9997 23.34368,-7.7214 34.88476,-11.1757 11.54108,-3.4543 22.99164,-6.6428 34.34571,-9.5801 11.35406,-2.9373 22.61169,-5.6235 33.76367,-8.0723 11.15198,-2.4487 22.19798,-4.6598 33.13278,-6.6484 10.9349,-1.9886 21.7584,-3.7537 32.461,-5.3106 10.7026,-1.5568 21.2849,-2.905 31.7402,-4.0586 10.4553,-1.1535 20.7836,-2.1119 30.9766,-2.8906 10.1929,-0.7787 20.2504,-1.3783 30.166,-1.8105 9.9155,-0.4322 19.6894,-0.6984 29.3125,-0.8125 9.623,-0.1142 19.0946,-0.076 28.4101,0.1 9.3155,0.1755 18.474,0.4891 27.4668,0.9258 8.9929,0.4367 17.8214,0.9965 26.4766,1.666 8.6552,0.6695 17.137,1.4484 25.4394,2.3222 8.3025,0.8739 16.4249,1.8428 24.3594,2.8926 7.9346,1.0498 15.6808,2.1796 23.2324,3.377 7.5517,1.1973 14.9088,2.4628 22.0625,3.7793 14.3074,2.6329 27.8046,5.4752 40.4297,8.414 12.6252,2.9389 24.3789,5.9728 35.2012,8.9903 10.8223,3.0174 20.7124,6.018 29.6113,8.8867 8.899,2.8686 16.8052,5.6051 23.6602,8.0976 6.855,2.4926 12.659,4.7419 17.3496,6.6309 9.3811,3.7781 14.3125,6.1211 14.3125,6.1211 0,0 4.9319,1.5134 14.4473,3.7656 4.7577,1.1261 10.6619,2.4375 17.6679,3.836 7.0061,1.3984 15.1138,2.8842 24.2813,4.3613 9.1675,1.477 19.3948,2.9448 30.6367,4.3066 11.2419,1.3619 23.4991,2.6171 36.7285,3.67 13.2294,1.0528 27.4307,1.903 42.5606,2.4531 7.5649,0.275 15.361,0.4749 23.3847,0.5879 8.0238,0.113 16.2744,0.1396 24.7461,0.066 8.4717,-0.073 17.1655,-0.2456 26.0742,-0.5293 8.9088,-0.2837 18.0323,-0.6789 27.3672,-1.1973 9.335,-0.5184 18.8806,-1.1601 28.6309,-1.9375 9.7503,-0.7773 19.7046,-1.6895 29.8594,-2.75 10.1547,-1.0605 20.5103,-2.2689 31.0586,-3.6367 10.5483,-1.3679 21.2896,-2.8963 32.2207,-4.5957 10.931,-1.6995 22.0506,-3.5697 33.3535,-5.625 11.3028,-2.0553 22.7893,-4.2952 34.4531,-6.7305 11.6638,-2.4353 23.5056,-5.0667 35.5195,-7.9062 12.0139,-2.8396 24.1996,-5.8882 36.5528,-9.1563 6.3417,-1.6777 12.8503,-3.5834 19.2793,-5.3789 v -106.0859 z"
       transform="scale(0.26458333)" />
  </g>
</svg>
