<?xml version="1.0" encoding="UTF-8" standalone="no"?>
<!-- Created with Inkscape (http://www.inkscape.org/) -->

<svg
   width="1023.4378mm"
   height="78.097137mm"
   viewBox="0 0 1023.4378 78.097138"
   version="1.1"
   id="svg5908"
   sodipodi:docname="swoosh.svg"
   inkscape:version="1.1 (c68e22c387, 2021-05-23)"
   xmlns:inkscape="http://www.inkscape.org/namespaces/inkscape"
   xmlns:sodipodi="http://sodipodi.sourceforge.net/DTD/sodipodi-0.dtd"
   xmlns="http://www.w3.org/2000/svg"
   xmlns:svg="http://www.w3.org/2000/svg">
  <sodipodi:namedview
     id="namedview5910"
     pagecolor="#ffffff"
     bordercolor="#666666"
     borderopacity="1.0"
     inkscape:pageshadow="2"
     inkscape:pageopacity="0.0"
     inkscape:pagecheckerboard="0"
     inkscape:document-units="mm"
     showgrid="false"
     inkscape:zoom="0.32"
     inkscape:cx="2285.9375"
     inkscape:cy="-17.1875"
     inkscape:window-width="2560"
     inkscape:window-height="1017"
     inkscape:window-x="1432"
     inkscape:window-y="-8"
     inkscape:window-maximized="1"
     inkscape:current-layer="layer1"
     fit-margin-top="0"
     fit-margin-left="0"
     fit-margin-right="0"
     fit-margin-bottom="0" />
  <defs
     id="defs5905" />
  <g
     inkscape:label="Layer 1"
     inkscape:groupmode="layer"
     id="layer1"
     transform="translate(475.56581,-436.23637)">
    <path
       id="rect5956"
       style="fill:#0000ff;stroke:none;stroke-width:1.66277;stroke-opacity:1"
       d="m 2070.6973,1785.0801 c -2.8644,0.8239 -5.6816,1.7908 -8.5645,2.5566 -8.5022,2.2587 -17.0812,4.2672 -25.7226,6.041 -8.6415,1.7739 -17.344,3.3139 -26.0918,4.6328 -8.7479,1.319 -17.5418,2.4185 -26.3633,3.3125 -8.8215,0.8941 -17.6709,1.583 -26.5332,2.0821 -8.8623,0.499 -17.7371,0.8074 -26.6074,0.9414 -8.8704,0.134 -17.7366,0.094 -26.5821,-0.1074 -8.8455,-0.2012 -17.671,-0.5621 -26.459,-1.0684 -8.7879,-0.5063 -17.5388,-1.1579 -26.2363,-1.9395 -8.6975,-0.7815 -17.3398,-1.6938 -25.9141,-2.7207 -8.5742,-1.0268 -17.0797,-2.1698 -25.498,-3.4121 -8.4183,-1.2422 -16.751,-2.584 -24.9805,-4.0117 -8.2294,-1.4277 -16.3554,-2.9402 -24.3633,-4.5234 -16.0156,-3.1665 -31.556,-6.6138 -46.4882,-10.2227 -14.9323,-3.6088 -29.2574,-7.3796 -42.8438,-11.1914 -13.5864,-3.8118 -26.4339,-7.6642 -38.4121,-11.4394 -11.9781,-3.7752 -23.0859,-7.4735 -33.1933,-10.9727 -10.1075,-3.4991 -19.2133,-6.7996 -27.1876,-9.7832 -7.9742,-2.9836 -14.8178,-5.6503 -20.3964,-7.8789 -11.1573,-4.4571 -17.2598,-7.1641 -17.2598,-7.1641 0,0 -5.0776,-2.3866 -14.8555,-6.1152 -4.8889,-1.8643 -10.953,-4.0638 -18.1445,-6.4687 -7.1915,-2.405 -15.5107,-5.0147 -24.9102,-7.6993 -9.3994,-2.6846 -19.8798,-5.4452 -31.3925,-8.1484 -11.5128,-2.7032 -24.0584,-5.3497 -37.5899,-7.8105 -6.7657,-1.2305 -13.7766,-2.4143 -21.0293,-3.5352 -7.2527,-1.1209 -14.7468,-2.1795 -22.4746,-3.1582 -7.7278,-0.9788 -15.6897,-1.8777 -23.8808,-2.6816 -8.1912,-0.804 -16.6114,-1.5128 -25.2539,-2.1094 -8.6426,-0.5966 -17.5077,-1.081 -26.5899,-1.4375 -9.0822,-0.3566 -18.3825,-0.5841 -27.8926,-0.668 -9.51,-0.084 -19.2302,-0.024 -29.1562,0.1973 -9.9261,0.2214 -20.0565,0.6028 -30.3867,1.1621 -10.3302,0.5593 -20.8595,1.2967 -31.5821,2.2265 -10.7225,0.9299 -21.6391,2.0518 -32.7422,3.3848 -11.103,1.333 -22.3934,2.8758 -33.8652,4.6445 -11.4717,1.7688 -23.1245,3.7648 -34.9531,6.002 -11.8286,2.2372 -23.8322,4.7169 -36.0059,7.4551 -12.1736,2.7382 -24.51655,5.734 -37.02342,9.0058 -12.50686,3.2719 -25.1776,6.8182 -38.00586,10.6563 -12.82825,3.8381 -25.8153,7.9692 -38.95312,12.4062 -13.13782,4.4371 -26.42773,9.1815 -39.86328,14.25 -13.43556,5.0686 -27.01682,10.4607 -40.73828,16.1934 -13.72147,5.7327 -27.58258,11.8049 -41.57813,18.2344 -13.99555,6.4295 -28.125,13.2161 -42.38281,20.375 -7.12891,3.5794 -14.29909,7.0421 -21.50586,10.3906 -7.20677,3.3485 -14.44988,6.582 -21.72852,9.7051 -7.27863,3.123 -14.59106,6.1358 -21.93554,9.039 -7.34449,2.9032 -14.72067,5.6979 -22.125,8.3868 -7.40433,2.6888 -14.83676,5.2718 -22.29492,7.7519 -7.45817,2.4801 -14.94323,4.8578 -22.44922,7.1348 -15.01198,4.5539 -30.11402,8.7059 -45.28125,12.4804 -15.16724,3.7745 -30.3994,7.1714 -45.67383,10.211 -15.27443,3.0395 -30.59027,5.7213 -45.92383,8.0703 -15.33356,2.349 -30.68468,4.3654 -46.0293,6.0683 -15.34462,1.703 -30.68261,3.094 -45.99023,4.1954 -15.30762,1.1013 -30.58409,1.9128 -45.80664,2.457 -15.22255,0.5442 -30.39105,0.82 -45.48047,0.8516 -15.08942,0.032 -30.09959,-0.1806 -45.00781,-0.6172 -14.90822,-0.4367 -29.71558,-1.0966 -44.39453,-1.9571 -14.67896,-0.8604 -29.23119,-1.9223 -43.63282,-3.1621 -14.40162,-1.2397 -28.65228,-2.6578 -42.72851,-4.2324 -14.07623,-1.5746 -27.976915,-3.3049 -41.679689,-5.1699 -13.702773,-1.865 -27.207031,-3.8656 -40.488281,-5.9766 -13.28125,-2.1109 -26.3406834,-4.334 -39.1523438,-6.6465 -12.8116602,-2.3124 -25.3759162,-4.7141 -37.6699222,-7.1836 -12.294006,-2.4694 -24.316635,-5.0058 -36.044922,-7.5879 -11.728286,-2.582 -23.160892,-5.2092 -34.275392,-7.8593 -22.229,-5.3004 -43.18249,-10.692 -62.66797,-15.9981 -19.48547,-5.3061 -37.5039,-10.5262 -53.86132,-15.4824 -16.35743,-4.9562 -31.05555,-9.6498 -43.9004,-13.9004 -12.84484,-4.2506 -23.83545,-8.0586 -32.7832,-11.248 -17.89551,-6.3788 -27.61328,-10.2793 -27.61328,-10.2793 0,0 -7.37231,-2.4781 -21.25781,-6.4649 -6.94275,-1.9933 -15.51407,-4.3637 -25.60547,-6.9902 -10.0914,-2.6265 -21.70361,-5.5101 -34.72852,-8.5274 -13.0249,-3.0172 -27.46182,-6.1682 -43.20508,-9.3339 -15.74325,-3.1658 -32.7926,-6.3462 -51.03906,-9.418 -18.24646,-3.0718 -37.69009,-6.036 -58.22461,-8.7715 -10.26725,-1.3677 -20.80849,-2.6778 -31.60742,-3.916 -10.79893,-1.2382 -21.85644,-2.404 -33.16015,-3.4824 -11.30372,-1.0785 -22.85317,-2.0687 -34.63477,-2.9571 -11.7816,-0.8883 -23.79475,-1.6738 -36.02734,-2.3418 -12.23259,-0.6679 -24.68511,-1.2194 -37.3418,-1.6367 -12.65669,-0.4172 -25.51837,-0.7016 -38.57227,-0.8379 -13.05389,-0.1362 -26.29845,-0.1242 -39.72265,0.051 -13.42421,0.1751 -27.0273,0.5146 -40.79493,1.0313 -13.76762,0.5166 -27.701,1.2111 -41.78515,2.0996 -14.08415,0.8885 -28.31958,1.971 -42.69336,3.2617 -14.37378,1.2907 -28.88497,2.7886 -43.52149,4.5117 -14.63652,1.7231 -29.39912,3.6715 -44.27152,5.8574 -14.8723,2.1859 -29.8542,4.6102 -44.9355,7.2891 -15.0813,2.6789 -30.262,5.6122 -45.5254,8.8145 -15.2634,3.2022 -30.6108,6.6737 -46.0293,10.4296 -15.4185,3.756 -30.9083,7.7969 -46.4551,12.1368 -15.5468,4.3398 -31.1506,8.9775 -46.7988,13.9316 -15.6482,4.9541 -31.3398,10.2236 -47.0625,15.8223 -15.7227,5.5986 -31.5184,11.0713 -47.3711,16.414 -15.8527,5.3428 -31.7629,10.5549 -47.7129,15.6348 -15.95,5.0799 -31.9406,10.0279 -47.9551,14.8379 -16.0144,4.81 -32.0515,9.4825 -48.0976,14.0156 -16.0462,4.5331 -32.1015,8.9265 -48.1465,13.1758 -16.045,4.2493 -32.0808,8.3541 -48.0918,12.3125 -16.011,3.9584 -31.9971,7.7711 -47.9414,11.4316 -15.9443,3.6606 -31.8467,7.1697 -47.6914,10.5254 -15.8447,3.3558 -31.6314,6.5577 -47.3438,9.6016 -15.7123,3.0439 -31.3512,5.9292 -46.8984,8.6543 -3.6188,0.6343 -7.1803,1.1722 -10.7891,1.789 v 20.9727 h 3868.1114 z"
       transform="scale(0.26458333)" />
    <path
       id="path11885"
       style="fill:#ff0000;stroke:none;stroke-width:1.66277;stroke-opacity:1"
       d="m -1797.4141,1648.7676 v 274.1972 c 3.6088,-0.6168 7.1703,-1.1547 10.7891,-1.789 15.5472,-2.7251 31.1861,-5.6104 46.8984,-8.6543 15.7124,-3.0439 31.4991,-6.2458 47.3438,-9.6016 15.8447,-3.3557 31.7471,-6.8648 47.6914,-10.5254 15.9443,-3.6605 31.9304,-7.4732 47.9414,-11.4316 16.011,-3.9584 32.0468,-8.0632 48.0918,-12.3125 16.045,-4.2493 32.1003,-8.6427 48.1465,-13.1758 16.0461,-4.5331 32.0832,-9.2056 48.0976,-14.0156 16.0145,-4.81 32.0051,-9.758 47.9551,-14.8379 15.95,-5.0799 31.8602,-10.292 47.7129,-15.6348 15.8527,-5.3427 31.6484,-10.8154 47.3711,-16.414 15.7227,-5.5987 31.4143,-10.8682 47.0625,-15.8223 15.6482,-4.9541 31.252,-9.5918 46.7988,-13.9316 15.5468,-4.3399 31.0366,-8.3808 46.4551,-12.1368 15.4185,-3.7559 30.7659,-7.2274 46.0293,-10.4296 15.2634,-3.2023 30.4441,-6.1356 45.5254,-8.8145 15.0813,-2.6789 30.0632,-5.1032 44.9355,-7.2891 14.8724,-2.1859 29.635,-4.1343 44.27152,-5.8574 14.63652,-1.7231 29.14771,-3.221 43.52149,-4.5117 14.37378,-1.2907 28.60921,-2.3732 42.69336,-3.2617 14.08415,-0.8885 28.01753,-1.583 41.78515,-2.0996 13.76763,-0.5167 27.37072,-0.8562 40.79493,-1.0313 13.4242,-0.175 26.66876,-0.187 39.72265,-0.051 13.0539,0.1363 25.91558,0.4207 38.57227,0.8379 12.65669,0.4173 25.10921,0.9688 37.3418,1.6367 12.23259,0.668 24.24574,1.4535 36.02734,2.3418 11.7816,0.8884 23.33105,1.8786 34.63477,2.9571 11.30371,1.0784 22.36122,2.2442 33.16015,3.4824 10.79893,1.2382 21.34017,2.5483 31.60742,3.916 20.53452,2.7355 39.97815,5.6997 58.22461,8.7715 18.24646,3.0718 35.29581,6.2522 51.03906,9.418 15.74326,3.1657 30.18018,6.3167 43.20508,9.3339 13.02491,3.0173 24.63712,5.9009 34.72852,8.5274 10.0914,2.6265 18.66272,4.9969 25.60547,6.9902 13.8855,3.9868 21.25781,6.4649 21.25781,6.4649 0,0 9.71777,3.9005 27.61328,10.2793 8.94775,3.1894 19.93836,6.9974 32.7832,11.248 12.84485,4.2506 27.54297,8.9442 43.9004,13.9004 16.35742,4.9562 34.37585,10.1763 53.86132,15.4824 19.48548,5.3061 40.43897,10.6977 62.66797,15.9981 11.1145,2.6501 22.547106,5.2773 34.275392,7.8593 11.728287,2.5821 23.750916,5.1185 36.044922,7.5879 12.294006,2.4695 24.858262,4.8712 37.6699222,7.1836 12.8116604,2.3125 25.8710938,4.5356 39.1523438,6.6465 13.28125,2.111 26.785508,4.1116 40.488281,5.9766 13.702774,1.865 27.603459,3.5953 41.679689,5.1699 14.07623,1.5746 28.32689,2.9927 42.72851,4.2324 14.40163,1.2398 28.95386,2.3017 43.63282,3.1621 14.67895,0.8605 29.48631,1.5204 44.39453,1.9571 14.90822,0.4366 29.91839,0.6487 45.00781,0.6172 15.08942,-0.032 30.25792,-0.3074 45.48047,-0.8516 15.22255,-0.5442 30.49902,-1.3557 45.80664,-2.457 15.30762,-1.1014 30.64561,-2.4924 45.99023,-4.1954 15.34462,-1.7029 30.69574,-3.7193 46.0293,-6.0683 15.33356,-2.349 30.6494,-5.0308 45.92383,-8.0703 15.27443,-3.0396 30.50659,-6.4365 45.67383,-10.211 15.16723,-3.7745 30.26927,-7.9265 45.28125,-12.4804 7.50599,-2.277 14.99105,-4.6547 22.44922,-7.1348 7.45816,-2.4801 14.89059,-5.0631 22.29492,-7.7519 7.40433,-2.6889 14.78051,-5.4836 22.125,-8.3868 7.34448,-2.9032 14.65691,-5.916 21.93554,-9.039 7.27864,-3.1231 14.52175,-6.3566 21.72852,-9.7051 7.20677,-3.3485 14.37695,-6.8112 21.50586,-10.3906 14.25781,-7.1589 28.38726,-13.9455 42.38281,-20.375 13.99555,-6.4295 27.85666,-12.5017 41.57813,-18.2344 13.72146,-5.7327 27.30272,-11.1248 40.73828,-16.1934 13.43555,-5.0685 26.72546,-9.8129 39.86328,-14.25 13.13782,-4.437 26.12487,-8.5681 38.95312,-12.4062 12.82826,-3.8381 25.499,-7.3844 38.00586,-10.6563 12.50687,-3.2718 24.84982,-6.2676 37.02342,-9.0058 12.1737,-2.7382 24.1773,-5.2179 36.0059,-7.4551 11.8286,-2.2372 23.4814,-4.2332 34.9531,-6.002 11.4718,-1.7687 22.7622,-3.3115 33.8652,-4.6445 11.1031,-1.333 22.0197,-2.4549 32.7422,-3.3848 10.7226,-0.9298 21.2519,-1.6672 31.5821,-2.2265 10.3302,-0.5593 20.4606,-0.9407 30.3867,-1.1621 9.926,-0.2214 19.6462,-0.2812 29.1562,-0.1973 9.5101,0.084 18.8104,0.3114 27.8926,0.668 9.0822,0.3565 17.9473,0.8409 26.5899,1.4375 8.6425,0.5966 17.0627,1.3054 25.2539,2.1094 8.1911,0.8039 16.153,1.7028 23.8808,2.6816 7.7278,0.9787 15.2219,2.0373 22.4746,3.1582 7.2527,1.1209 14.2636,2.3047 21.0293,3.5352 13.5315,2.4608 26.0771,5.1073 37.5899,7.8105 11.5127,2.7032 21.9931,5.4638 31.3925,8.1484 9.3995,2.6846 17.7187,5.2943 24.9102,7.6993 7.1915,2.4049 13.2556,4.6044 18.1445,6.4687 9.7779,3.7286 14.8555,6.1152 14.8555,6.1152 0,0 6.1025,2.707 17.2598,7.1641 5.5786,2.2286 12.4222,4.8953 20.3964,7.8789 7.9743,2.9836 17.0801,6.2841 27.1876,9.7832 10.1074,3.4992 21.2152,7.1975 33.1933,10.9727 11.9782,3.7752 24.8257,7.6276 38.4121,11.4394 13.5864,3.8118 27.9115,7.5826 42.8438,11.1914 14.9322,3.6089 30.4726,7.0562 46.4882,10.2227 8.0079,1.5832 16.1339,3.0957 24.3633,4.5234 8.2295,1.4277 16.5622,2.7695 24.9805,4.0117 8.4183,1.2423 16.9238,2.3853 25.498,3.4121 8.5743,1.0269 17.2166,1.9392 25.9141,2.7207 8.6975,0.7816 17.4484,1.4332 26.2363,1.9395 8.788,0.5063 17.6135,0.8672 26.459,1.0684 8.8455,0.2011 17.7117,0.2414 26.5821,0.1074 8.8703,-0.134 17.7451,-0.4424 26.6074,-0.9414 8.8623,-0.4991 17.7117,-1.188 26.5332,-2.0821 8.8215,-0.894 17.6154,-1.9935 26.3633,-3.3125 8.7478,-1.3189 17.4503,-2.8589 26.0918,-4.6328 8.6414,-1.7738 17.2204,-3.7823 25.7226,-6.041 2.8829,-0.7658 5.7001,-1.7327 8.5645,-2.5566 v -136.3125 z"
       transform="scale(0.26458333)" />
  </g>
</svg>
